<svg xmlns="http://www.w3.org/2000/svg" width="18" height="14" viewBox="0 0 18 14">
    <g fill="none" fill-rule="evenodd">
        <g fill="#F5F5F5" fill-rule="nonzero">
            <g>
                <path d="M17.266 1.406c.117 0 .234-.078.234-.234V.234c0-.117-.117-.234-.234-.234H.234C.078 0 0 .117 0 .234v.938c0 .156.078.234.234.234h17.032zm0 6.25c.117 0 .234-.078.234-.234v-.938c0-.117-.117-.234-.234-.234H.234c-.156 0-.234.117-.234.234v.938c0 .156.078.234.234.234h17.032zm0 6.25c.117 0 .234-.078.234-.234v-.938c0-.117-.117-.234-.234-.234H.234c-.156 0-.234.117-.234.234v.938c0 .156.078.234.234.234h17.032z" transform="translate(-21.000000, -18.000000) translate(21.000000, 18.000000)"/>
            </g>
        </g>
    </g>
</svg>
